<svg xmlns="http://www.w3.org/2000/svg" viewBox="0 0 512 512" role="img" aria-labelledby="title">
  <title id="title">AI Router</title>
  <circle cx="256" cy="256" r="250" fill="#111318"/>
  <circle cx="256" cy="256" r="242" fill="none" stroke="#ffffff" stroke-opacity=".08" stroke-width="8"/>
  <!-- Big Snow 3 letterforms converted to paths from Big-Snow-3.otf. -->
  <g transform="translate(48 385) scale(.34 -.34)">
    <path fill="#f8fafc" d="M316 241C316 232 315 218 316 203C317 156 319 109 321 62C325 24 351 -1 385 -4C421 -7 450 12 461 49C464 62 465 74 465 87C463 126 460 162 457 200C448 305 438 409 429 513C425 561 422 610 418 658C417 676 414 695 408 712C399 745 369 758 336 744C315 736 298 721 287 700C271 669 254 637 240 605C203 521 165 437 131 352C115 312 94 289 48 296C32 298 20 285 19 271C17 256 26 244 39 238C50 234 59 233 72 228C57 198 44 171 31 142C20 119 11 96 4 72C-3 52 5 37 19 28C35 19 54 21 69 38C79 49 88 62 94 75C115 117 136 160 152 204C161 232 178 237 203 237C240 237 275 240 316 241ZM196 306C228 377 260 443 291 510C293 510 295 509 297 509C301 444 307 379 312 312C275 310 239 308 196 306Z"/>
    <path fill="#f8fafc" transform="translate(499)" d="M157 54C181 229 174 405 177 603C177 637 174 673 156 704C130 751 74 754 45 710C36 696 28 681 25 667C16 630 6 592 5 556C-4 410 0 265 16 111C21 65 22 -10 88 -12C121 -13 151 15 157 54Z"/>
    <path fill="#4f73ff" transform="translate(745)" d="M204 301C287 320 396 376 443 480C469 541 487 621 460 688C420 787 313 752 252 691C205 645 174 580 153 523C150 565 152 627 143 673C137 703 112 722 82 721C56 720 41 705 31 685C3 629 1 455 0 383C-1 290 1 190 6 96C7 72 11 49 19 26C39 -28 132 -33 152 26C159 46 161 67 161 89C161 134 158 178 155 237C184 186 229 110 286 61C335 20 377 9 444 14C484 16 486 68 447 66C444 66 440 66 436 65C324 52 245 207 204 301ZM177 372C188 453 225 561 287 632C356 707 391 690 400 644C414 571 377 486 318 436C276 399 224 376 177 372Z"/>
  </g>
</svg>
